<svg xmlns="http://www.w3.org/2000/svg" viewBox="0 0 32 35" x="0px" y="0px">
    <path
        d="M29.413,14.602l-5.23,5.382,1.236,7.612c.13,.801-.194,1.583-.846,2.042-.622,.437-1.42,.48-2.085,.112l-6.413-3.559-6.414,3.559c-.3,.167-.628,.249-.955,.249-.396,0-.789-.121-1.13-.361-.653-.458-.977-1.241-.847-2.042l1.236-7.612L2.735,14.602c-.546-.562-.729-1.378-.477-2.13,.245-.729,.857-1.252,1.6-1.366l7.187-1.103,3.222-6.837c.336-.718,1.029-1.166,1.807-1.166h0c.778,0,1.471,.448,1.807,1.168l3.222,6.834,7.187,1.103c.742,.114,1.355,.638,1.6,1.366,.252,.751,.069,1.568-.477,2.13Z" fill="#FFE748"/>
</svg>