<svg xmlns="http://www.w3.org/2000/svg" xmlns:xlink="http://www.w3.org/1999/xlink" version="1.1" x="0px" y="0px"
    viewBox="0 0 100 100" enable-background="new 0 0 100 100" xml:space="preserve">
    <g>
        <rect x="72.501" y="16.985" width="2"  fill="#DFB97D" height="31.129" />
        <rect x="59.499" y="4.985" width="2"   fill="#DFB97D" height="31.129" />
        <rect x="49.499" y="1" width="2"       fill="#DFB97D" height="17.927" />
        <rect x="54.501" y="3" width="2"       fill="#DFB97D" height="19.927" />
        <rect x="77.502" y="15" width="2"      fill="#DFB97D" height="19.984" />
        <path
            d="M80.568,50.171L83.396,53l2.829-2.829c3.505-3.505,3.505-9.223,0-12.728l-2.829-2.829l-2.828,2.829   C77.063,40.948,77.063,46.666,80.568,50.171z" fill="#DFB97D"/>
        <rect x="92.499" y="16.985" width="2.001" height="31.129" fill="#DFB97D" />
        <rect x="87.501" y="15" width="2" height="19.927" fill="#DFB97D" />
        <path
            d="M47.567,38.171l2.829,2.828l2.829-2.828c3.504-3.505,3.504-9.223,0-12.728l-2.829-2.829l-2.829,2.829   C44.063,28.948,44.063,34.666,47.567,38.171z" fill="#DFB97D"/>
        <rect x="82.499" y="13" width="2" height="17.927" fill="#DFB97D"/>
        <path
            d="M95.5,57v-4h-4c-3.923,0-7.272,2.532-8.5,6.045C81.772,55.532,78.423,53,74.501,53H70.5v4c0,3.511,2.028,6.562,4.972,8.045   c-0.318-0.035-0.643-0.053-0.971-0.053H70.5v4c0,3.519,2.038,6.576,4.993,8.055c-0.326-0.037-0.657-0.056-0.992-0.056H70.5v4.001   c0,4.957,4.043,9,9,9h3h0.001v8.999h2v-8.999h2c4.956,0,8.999-4.043,8.999-9v-4.001h-4c-0.335,0-0.666,0.019-0.992,0.056   c2.955-1.479,4.992-4.537,4.992-8.055v-4h-4c-0.329,0-0.652,0.018-0.972,0.053C93.472,63.562,95.5,60.511,95.5,57z M79.5,66h3h1   h3.001c0.328,0,0.651-0.019,0.971-0.053c-2.076,1.045-3.696,2.872-4.472,5.089c-0.774-2.217-2.396-4.044-4.472-5.089   C78.848,65.981,79.172,66,79.5,66z M83,83.036c-0.777-2.225-2.406-4.056-4.492-5.099c0.326,0.035,0.656,0.055,0.992,0.055h3h1   h3.001c0.335,0,0.665-0.02,0.991-0.055C85.406,78.98,83.777,80.812,83,83.036z" fill="#DFB97D"/>
        <rect x="6.501" y="16.985" width="2" height="31.129" fill="#DFB97D"/>
        <rect x="11.5" y="15.106" width="2" height="19.878" fill="#DFB97D"/>
        <path
            d="M17,59.046C15.772,55.532,12.423,53,8.5,53h-4v4c0,3.511,2.028,6.562,4.972,8.045C9.152,65.01,8.829,64.992,8.5,64.992h-4   v4c0,3.519,2.037,6.576,4.992,8.055C9.167,77.01,8.836,76.991,8.5,76.991h-4v4.001c0,4.957,4.043,9,9,9h3v0.063h0.001v8.937h2   v-8.937h2c4.957,0,9-4.043,9-9v-4H25.5c-0.394,0-0.781,0.025-1.162,0.075c3.047-1.444,5.163-4.552,5.163-8.138v-4H25.5   c-0.328,0-0.652,0.018-0.971,0.053c2.943-1.482,4.972-4.534,4.972-8.045v-4H25.5C21.577,53,18.228,55.532,17,59.046z M13.5,66h3h1   h3.001c0.328,0,0.651-0.018,0.971-0.053c-2.076,1.046-3.696,2.872-4.472,5.09c-0.774-2.218-2.396-4.044-4.472-5.09   C12.848,65.981,13.171,66,13.5,66z M17.012,83.068c-0.773-2.238-2.408-4.082-4.504-5.131c0.325,0.035,0.656,0.055,0.992,0.055h3h1   h3.001c0.394,0,0.781-0.026,1.161-0.075C19.505,78.94,17.814,80.798,17.012,83.068z" fill="#DFB97D"/>
        <path
            d="M50,47.045C48.772,43.531,45.423,41,41.501,41H37.5v4c0,3.51,2.027,6.562,4.972,8.044   c-0.319-0.034-0.643-0.053-0.971-0.053H37.5v4.001c0,3.519,2.038,6.577,4.994,8.055c-0.327-0.036-0.657-0.055-0.993-0.055H37.5v4   c0,3.519,2.038,6.576,4.993,8.055c-0.326-0.037-0.657-0.056-0.992-0.056H37.5v4.001c0,4.957,4.043,9,8.999,9H49.5h0.001V99h2   v-9.008h2c4.956,0,8.999-4.043,8.999-9v-4.001h-4c-0.335,0-0.666,0.02-0.992,0.056c2.955-1.479,4.992-4.536,4.992-8.055v-4h-4   c-0.336,0-0.667,0.019-0.993,0.055c2.955-1.479,4.993-4.536,4.993-8.055v-4.001h-4c-0.328,0-0.651,0.018-0.971,0.053   C60.473,51.562,62.5,48.51,62.5,45v-4h-4C54.577,41,51.228,43.531,50,47.045z M46.499,54H49.5h1h3.001   c0.328,0,0.651-0.018,0.971-0.053c-2.076,1.046-3.697,2.872-4.472,5.089c-0.774-2.217-2.396-4.043-4.471-5.089   C45.849,53.982,46.172,54,46.499,54z M50.001,83.037c-0.778-2.225-2.407-4.057-4.493-5.1c0.325,0.035,0.656,0.055,0.991,0.055H49.5   h1h3.001c0.335,0,0.666-0.02,0.992-0.055C52.406,78.98,50.778,80.812,50.001,83.037z M50,71.037   c-0.777-2.226-2.407-4.058-4.494-5.101c0.327,0.036,0.657,0.055,0.993,0.055H49.5h1h3.001c0.336,0,0.666-0.019,0.993-0.055   C52.407,66.98,50.778,68.812,50,71.037z" fill="#DFB97D"/>
        <path
            d="M14.567,50.171L17.396,53l2.828-2.829c3.506-3.505,3.506-9.223,0-12.728l-2.828-2.829l-2.829,2.829   C11.063,40.948,11.063,46.666,14.567,50.171z" fill="#DFB97D"/>
        <rect x="16.499" y="13" width="2" height="17.927" fill="#DFB97D"/>
        <rect x="39.501" y="4.985" width="2" height="31.129" fill="#DFB97D"/>
        <rect x="26.499" y="16.985" width="2" height="31.129" fill="#DFB97D"/>
        <rect x="21.5" y="15" width="2" height="19.901" fill="#DFB97D"/>
        <rect x="44.501" y="3" width="2" height="19.984" fill="#DFB97D"/>
    </g>z
</svg>